<svg width="60" height="15" viewBox="0 0 60 15" fill="none" xmlns="http://www.w3.org/2000/svg">
<path d="M1 6.36395C0.447715 6.36395 0 6.81167 0 7.36395C0 7.91624 0.447715 8.36395 1 8.36395V7.36395V6.36395ZM59.7071 8.07106C60.0976 7.68054 60.0976 7.04737 59.7071 6.65685L53.3432 0.292885C52.9526 -0.0976396 52.3195 -0.0976396 51.9289 0.292885C51.5384 0.683409 51.5384 1.31657 51.9289 1.7071L57.5858 7.36395L51.9289 13.0208C51.5384 13.4113 51.5384 14.0445 51.9289 14.435C52.3195 14.8255 52.9526 14.8255 53.3432 14.435L59.7071 8.07106ZM1 7.36395V8.36395H59V7.36395V6.36395H1V7.36395Z" fill="#a234e2"/>
</svg>
