<svg width="112" height="90" viewBox="0 0 112 90" fill="none" xmlns="http://www.w3.org/2000/svg">
<path d="M89.2296 35.7603H97.593V28.9663H89.2296V35.7603ZM89.2296 46.5873H97.593V39.7933H89.2296V46.5873ZM89.2296 57.4105H97.593V50.6165H89.2296V57.4105ZM89.2296 68.2376H97.593V61.4436H89.2296V68.2376ZM80.6546 81.524H91.2604V72.0967H80.6546V81.524ZM74.3268 68.2376H82.6853V61.4436H74.3268V68.2376ZM74.3268 57.4105H82.6853V50.6165H74.3268V57.4105ZM74.3268 46.5873H82.6853V39.7933H74.3268V46.5873ZM82.6853 28.9663H74.3268V35.7603H82.6853V28.9663ZM65.0732 17.2382V81.524H70.79V21.8281H101.13V81.524H106.842V17.2382H65.0732Z" fill="url(#paint0_linear_459_771)"/>
<path d="M0 85.4101V90H112V85.4101H0ZM16.7555 55.423H27.9194V64.3978H16.7555V55.423ZM16.7555 41.1274H27.9194V50.1023H16.7555V41.1274ZM16.7555 26.8318H27.9194V35.8066H16.7555V26.8318ZM16.7555 12.5362H27.9194V21.5111H16.7555V12.5362ZM36.658 55.423H47.8267V64.3978H36.658V55.423ZM36.658 41.1274H47.8267V50.1023H36.658V41.1274ZM36.658 26.8318H47.8267V35.8066H36.658V26.8318ZM36.658 12.5362H47.8267V21.5111H36.658V12.5362ZM25.2054 69.823H39.3672V81.8565H56.3633V0H8.21414V81.8565H25.2054V69.823Z" fill="url(#paint1_linear_459_771)"/>
<defs>
<linearGradient id="paint0_linear_459_771" x1="111.588" y1="50.0364" x2="56.0043" y2="50.0364" gradientUnits="userSpaceOnUse">
<stop stop-color="#FF7C94"/>
<stop offset="0.984375" stop-color="#1F52F3"/>
</linearGradient>
<linearGradient id="paint1_linear_459_771" x1="124.726" y1="45.9174" x2="-24.3179" y2="45.9174" gradientUnits="userSpaceOnUse">
<stop stop-color="#FF7C94"/>
<stop offset="0.984375" stop-color="#1F52F3"/>
</linearGradient>
</defs>
</svg>
